# xmcd
#
# Track frame offsets: 
#        150
#        19880
#        49810
#        64327
#
# Disc length: 1089 seconds
#
# Revision: 2
# Processed by: cddbd v1.5.2PL0 Copyright (c) Steve Scherf et al.
# Submitted via: ExactAudioCopy v0.99pb4
#
DISCID=33043f04
DTITLE=Engin-Eeer Feat.Pond - Spiel mir das Lied vom Tod (Once upon a 
DTITLE=time in the west)
DYEAR=1992
DGENRE=Techno
TTITLE0=Spiel mir das Lied vom Tod (Radio Version)
TTITLE1=Spiel mir das Lied vom Tod (Club Version)
TTITLE2=Paradise Island
TTITLE3=Imagination Of Dreams
EXTD=
EXTT0=
EXTT1=
EXTT2=
EXTT3=
PLAYORDER=
